<?xml version="1.0" encoding="UTF-8" standalone="no"?>
<svg
   fill="none"
   viewBox="0 0 24 24"
   stroke-width="1.5"
   stroke="currentColor"
   class="w-6 h-6"
   version="1.1"
   id="svg44"
   sodipodi:docname="logo-white.svg"
   xml:space="preserve"
   inkscape:version="1.2.2 (b0a84865, 2022-12-01)"
   inkscape:export-filename="logo.png"
   inkscape:export-xdpi="96"
   inkscape:export-ydpi="96"
   xmlns:inkscape="http://www.inkscape.org/namespaces/inkscape"
   xmlns:sodipodi="http://sodipodi.sourceforge.net/DTD/sodipodi-0.dtd"
   xmlns="http://www.w3.org/2000/svg"
   xmlns:svg="http://www.w3.org/2000/svg"><defs
     id="defs48" /><sodipodi:namedview
     id="namedview46"
     pagecolor="#505050"
     bordercolor="#eeeeee"
     borderopacity="1"
     inkscape:showpageshadow="0"
     inkscape:pageopacity="0"
     inkscape:pagecheckerboard="0"
     inkscape:deskcolor="#505050"
     showgrid="false"
     inkscape:zoom="9.8333333"
     inkscape:cx="-2.7457627"
     inkscape:cy="9.7627119"
     inkscape:window-width="1482"
     inkscape:window-height="886"
     inkscape:window-x="15"
     inkscape:window-y="53"
     inkscape:window-maximized="0"
     inkscape:current-layer="svg44" /><g
     style="fill:#f9f9f9;stroke:#000000;stroke-width:1.5;stroke-opacity:1"
     id="g235"
     transform="translate(3.7627121,1.7288133)"><path
       stroke-linecap="round"
       stroke-linejoin="round"
       d="M 19.5,14.25 V 11.625 A 3.375,3.375 0 0 0 16.125,8.25 h -1.5 A 1.125,1.125 0 0 1 13.5,7.125 v -1.5 A 3.375,3.375 0 0 0 10.125,2.25 H 8.25 m 0,12.75 h 7.5 m -7.5,3 H 12 M 10.5,2.25 H 5.625 C 5.004,2.25 4.5,2.754 4.5,3.375 v 17.25 c 0,0.621 0.504,1.125 1.125,1.125 h 12.75 c 0.621,0 1.125,-0.504 1.125,-1.125 V 11.25 a 9,9 0 0 0 -9,-9 z"
       id="path226"
       style="fill:#f9f9f9;stroke:#000000;stroke-opacity:1" /></g><path
     stroke-linecap="round"
     stroke-linejoin="round"
     d="m 0.67372881,1.7885933 c 0,-0.85600003 0.91700009,-1.39800008 1.66699999,-0.98600003 L 13.880729,7.1505933 a 1.125,1.125 0 0 1 0,1.971 L 2.3407288,15.468593 a 1.125,1.125 0 0 1 -1.66699999,-0.985 z"
     id="path42"
     style="fill:#f9f9f9;stroke:#000000;stroke-opacity:1" /></svg>
